<?xml version="1.0" standalone="no"?>
<!DOCTYPE svg PUBLIC "-//W3C//DTD SVG 20010904//EN"
 "http://www.w3.org/TR/2001/REC-SVG-20010904/DTD/svg10.dtd">
<svg version="1.0" xmlns="http://www.w3.org/2000/svg"
 width="2133.000000pt" height="1942.000000pt" viewBox="0 0 2133.000000 1942.000000"
 preserveAspectRatio="xMidYMid meet">

<g transform="translate(0.000000,1942.000000) scale(0.100000,-0.100000)"
fill="#000000" stroke="none">
<path d="M4880 15894 c-108 -9 -196 -10 -345 -4 -297 14 -290 14 -324 -17 -22
-20 -108 -194 -304 -613 -537 -1145 -607 -1289 -648 -1326 -54 -49 -87 11
-484 884 -432 950 -476 1042 -503 1066 -20 18 -37 18 -496 5 -421 -12 -477
-16 -492 -31 -16 -15 -16 -39 -5 -310 43 -1095 46 -1764 13 -2473 -12 -253
-23 -554 -24 -668 -3 -197 -2 -209 16 -223 17 -12 99 -14 492 -14 450 0 473 1
495 19 l24 19 -1 229 c-1 125 -7 487 -14 804 -7 317 -10 593 -6 613 4 22 12
36 19 33 16 -5 145 -289 363 -798 213 -499 277 -644 356 -811 73 -153 81 -158
236 -158 90 0 100 2 120 23 12 13 135 302 273 643 259 641 423 1033 466 1118
24 48 26 49 40 30 13 -16 14 -62 8 -319 -3 -165 -10 -401 -15 -525 -5 -124
-12 -370 -16 -546 l-7 -322 26 -26 26 -26 496 0 496 0 26 26 26 26 -7 256 c-4
142 -14 430 -23 642 -21 498 -21 1235 0 1830 9 256 18 570 19 698 3 221 2 234
-16 248 -24 17 -102 17 -306 -2z"/>
<path d="M6626 14785 c-408 -58 -714 -275 -896 -635 -89 -177 -135 -361 -149
-592 -29 -463 99 -828 394 -1124 156 -156 292 -235 504 -291 82 -22 118 -26
251 -26 143 -1 161 1 240 27 145 47 252 114 393 243 38 34 72 63 77 63 13 0
20 -28 40 -143 10 -59 26 -120 35 -134 l18 -26 326 7 c179 3 362 10 406 15 69
8 82 12 104 37 l24 29 -6 230 c-4 126 -11 302 -17 390 -41 642 -27 1097 45
1560 23 144 23 151 6 168 -32 32 -533 146 -721 163 l-69 7 -19 -33 c-11 -18
-28 -62 -37 -97 -16 -66 -40 -123 -51 -123 -4 0 -44 36 -91 80 -69 65 -104 90
-186 130 -56 26 -136 56 -177 66 -101 22 -317 27 -444 9z m476 -796 c91 -19
177 -67 243 -133 99 -102 145 -220 145 -376 0 -155 -47 -275 -146 -375 -93
-95 -217 -145 -359 -145 -289 0 -510 230 -509 530 1 232 117 407 319 478 33
12 71 23 85 25 53 9 172 6 222 -4z"/>
<path d="M9654 14786 c-292 -48 -529 -194 -695 -429 -211 -299 -277 -737 -169
-1127 29 -105 118 -283 189 -377 209 -277 480 -421 826 -440 266 -14 522 59
694 198 l63 51 -4 -124 c-3 -104 -7 -130 -26 -166 -64 -120 -256 -229 -467
-263 -202 -32 -496 25 -785 153 -121 54 -134 54 -157 7 -14 -30 -112 -452
-120 -519 -5 -44 -3 -54 18 -76 71 -77 283 -138 695 -201 157 -24 207 -27 409
-27 160 1 263 6 339 17 630 96 910 373 1012 1007 14 89 18 228 24 915 5 446
11 907 16 1026 7 209 6 217 -13 236 -12 12 -38 24 -59 27 -48 8 -825 86 -853
86 -32 0 -43 -35 -50 -162 -9 -150 -18 -161 -74 -93 -118 143 -240 226 -394
266 -100 26 -305 34 -419 15z m592 -730 c219 -58 367 -294 333 -531 -22 -161
-119 -303 -249 -370 -176 -90 -407 -39 -531 118 -89 111 -123 230 -107 377 19
183 148 347 313 400 71 22 170 25 241 6z"/>
<path d="M13665 14793 c-72 -9 -186 -38 -252 -64 -94 -37 -181 -90 -353 -215
-94 -69 -147 -101 -153 -95 -6 6 -14 75 -18 155 -4 89 -12 155 -21 172 -13 27
-17 29 -72 27 -32 -1 -133 -22 -225 -47 -114 -31 -205 -48 -291 -56 -164 -16
-282 -35 -317 -52 -37 -18 -38 -35 -14 -275 38 -379 43 -522 45 -1343 l1 -805
26 -12 c62 -30 822 -34 876 -5 14 8 25 26 29 49 4 21 4 362 0 759 -6 572 -5
731 5 766 19 64 107 146 215 200 84 41 91 43 178 43 74 0 98 -4 131 -22 49
-26 87 -65 113 -118 45 -91 46 -110 46 -896 1 -720 2 -748 20 -768 19 -21 25
-21 443 -21 280 0 431 4 444 11 11 5 24 22 30 36 7 18 6 188 -2 512 -9 339 -9
560 -2 732 9 238 10 248 36 302 35 70 135 165 214 202 75 36 168 44 246 21 77
-22 136 -80 167 -161 35 -95 47 -490 31 -1091 -15 -588 -23 -559 141 -574 116
-12 576 -12 682 -1 61 7 84 13 96 29 15 18 16 117 14 1053 -1 1144 3 1075 -66
1199 -64 115 -151 196 -285 263 -187 95 -465 122 -677 67 -217 -56 -467 -207
-595 -361 -42 -50 -52 -57 -57 -42 -86 263 -379 438 -722 432 -42 -1 -90 -4
-107 -6z"/>
<path d="M17626 14785 c-408 -58 -714 -275 -896 -635 -89 -177 -135 -361 -149
-592 -29 -463 99 -828 394 -1124 156 -156 292 -235 504 -291 82 -22 118 -26
251 -26 143 -1 161 1 240 27 145 47 252 114 393 243 38 34 72 63 77 63 13 0
20 -28 40 -143 10 -59 26 -120 35 -134 l18 -26 326 7 c179 3 362 10 406 15 69
8 82 12 104 37 l24 29 -6 230 c-4 126 -11 302 -17 390 -41 642 -27 1097 45
1560 23 144 23 151 6 168 -32 32 -533 146 -721 163 l-69 7 -19 -33 c-11 -18
-28 -62 -37 -97 -16 -66 -40 -123 -51 -123 -4 0 -44 36 -91 80 -69 65 -104 90
-186 130 -56 26 -136 56 -177 66 -101 22 -317 27 -444 9z m476 -796 c91 -19
177 -67 243 -133 99 -102 145 -220 145 -376 0 -155 -47 -275 -146 -375 -93
-95 -217 -145 -359 -145 -289 0 -510 230 -509 530 1 232 117 407 319 478 33
12 71 23 85 25 53 9 172 6 222 -4z"/>
<path d="M4146 9459 c-523 -55 -935 -290 -1251 -715 -171 -229 -291 -515 -345
-824 -28 -158 -38 -494 -21 -662 25 -233 81 -438 176 -636 94 -195 188 -327
353 -495 344 -350 789 -527 1322 -527 287 0 675 72 970 179 l83 31 144 -40
c228 -62 428 -103 468 -96 48 9 54 30 44 151 -36 446 -53 951 -40 1195 6 107
14 281 18 387 5 170 4 195 -11 217 -20 31 -38 32 -353 14 -186 -10 -241 -9
-452 7 -229 17 -241 17 -267 0 l-27 -17 6 -147 c4 -118 33 -414 72 -732 l5
-47 -138 -46 c-277 -92 -525 -109 -745 -52 -404 104 -629 467 -604 976 17 341
155 618 390 778 138 96 300 137 497 129 267 -12 450 -97 683 -316 53 -50 103
-91 111 -91 81 0 536 566 536 666 0 52 -123 210 -245 316 -347 303 -863 451
-1379 397z"/>
<path d="M18076 8419 c-366 -47 -748 -283 -909 -560 -52 -89 -78 -185 -84
-306 -6 -127 5 -206 44 -297 39 -94 79 -149 235 -323 203 -228 256 -328 229
-429 -34 -126 -125 -177 -411 -230 -191 -35 -220 -44 -220 -68 0 -43 184 -359
299 -514 88 -119 99 -126 194 -118 43 4 109 13 145 21 328 69 746 311 855 496
83 141 128 353 107 506 -27 205 -96 329 -313 561 -165 176 -197 228 -197 317
0 31 7 72 15 93 35 84 143 159 263 182 61 12 209 9 243 -4 11 -5 21 3 34 28
16 29 17 40 7 73 -25 84 -244 457 -315 539 -38 43 -40 44 -95 43 -32 -1 -88
-5 -126 -10z"/>
<path d="M15385 8349 c-494 -52 -894 -380 -1054 -864 -51 -154 -71 -274 -78
-460 -17 -447 111 -796 389 -1060 221 -211 490 -329 830 -365 253 -27 557 3
777 77 156 52 294 136 400 244 51 52 53 56 48 98 -10 85 -243 512 -295 540
-13 7 -41 -6 -122 -56 -120 -75 -227 -124 -344 -156 -107 -29 -337 -31 -434
-4 -183 51 -301 141 -348 264 -9 24 -15 46 -12 48 3 3 164 19 359 35 195 17
527 48 739 70 416 44 448 51 490 110 44 62 54 108 54 255 -1 345 -123 635
-375 886 -274 273 -604 382 -1024 338z m239 -704 c122 -58 223 -200 233 -327
4 -49 2 -66 -9 -76 -28 -23 -494 -82 -649 -82 -101 0 -120 29 -100 153 22 137
113 277 213 328 68 35 88 39 174 35 61 -3 93 -10 138 -31z"/>
<path d="M7475 8294 c-16 -2 -66 -9 -109 -15 -538 -73 -925 -496 -1006 -1098
-17 -127 -14 -390 5 -507 48 -284 175 -532 375 -735 202 -206 434 -310 720
-325 247 -12 444 65 659 260 46 42 87 76 91 76 13 0 20 -28 40 -143 10 -59 26
-120 35 -134 l17 -26 322 7 c176 4 359 10 405 15 76 7 87 11 109 37 l25 29 -6
230 c-4 126 -11 302 -17 390 -41 649 -26 1126 50 1590 18 113 18 121 2 137
-31 31 -469 133 -682 159 -78 9 -102 9 -114 0 -16 -14 -36 -64 -60 -151 -8
-30 -22 -64 -29 -75 -14 -18 -19 -16 -101 63 -100 94 -217 158 -351 193 -78
20 -305 34 -380 23z m397 -805 c185 -39 338 -192 377 -377 16 -75 14 -208 -4
-277 -48 -185 -193 -326 -373 -364 -74 -15 -177 -14 -247 4 -187 49 -345 226
-375 420 -45 287 119 540 385 595 60 12 177 11 237 -1z"/>
<path d="M11323 8290 c-197 -28 -363 -109 -607 -295 -89 -68 -125 -90 -133
-81 -3 3 -9 73 -14 156 -5 88 -14 161 -21 178 -13 25 -18 27 -72 25 -32 -1
-133 -22 -225 -47 -114 -31 -203 -48 -286 -56 -161 -15 -287 -35 -322 -52 -27
-13 -28 -16 -27 -88 1 -41 8 -145 17 -230 35 -328 39 -473 38 -1280 -1 -665 1
-808 12 -824 10 -14 34 -21 103 -27 107 -11 629 -13 719 -4 111 12 100 -77
100 807 0 737 1 775 19 811 27 54 108 122 205 170 81 40 89 42 175 42 75 0 98
-4 132 -22 56 -30 107 -92 129 -156 27 -81 37 -426 30 -1047 l-6 -546 21 -27
21 -27 425 0 c281 0 432 4 445 11 11 5 24 22 30 36 6 17 5 195 -2 517 -8 332
-9 569 -3 731 9 233 10 243 37 297 35 71 135 166 214 203 75 36 168 44 246 21
77 -22 136 -80 167 -161 35 -95 47 -490 31 -1091 -11 -419 -11 -476 3 -508 27
-65 48 -69 401 -73 353 -5 490 4 515 35 15 17 16 119 15 1053 l-2 1034 -22 65
c-78 225 -269 379 -541 436 -126 27 -358 25 -464 -4 -223 -61 -468 -210 -595
-363 -42 -50 -52 -57 -57 -42 -64 195 -250 351 -486 408 -77 19 -281 27 -365
15z"/>
</g>
</svg>
